<?xml version="1.0" standalone="yes"?>

<svg version="1.1" viewBox="0.0 0.0 960.0 720.0" fill="none" stroke="none" stroke-linecap="square" stroke-miterlimit="10" xmlns="http://www.w3.org/2000/svg" xmlns:xlink="http://www.w3.org/1999/xlink"><clipPath id="p.0"><path d="m0 0l960.0 0l0 720.0l-960.0 0l0 -720.0z" clip-rule="nonzero"></path></clipPath><g clip-path="url(#p.0)"><path fill="#000000" fill-opacity="0.0" d="m0 0l960.0 0l0 720.0l-960.0 0z" fill-rule="nonzero"></path><path fill="#000000" fill-opacity="0.0" d="m125.10236 613.5381l0 -536.3465" fill-rule="nonzero"></path><path stroke="#000000" stroke-width="2.0" stroke-linejoin="round" stroke-linecap="butt" d="m125.10236 613.5381l0 -524.3465" fill-rule="evenodd"></path><path fill="#000000" stroke="#000000" stroke-width="2.0" stroke-linecap="butt" d="m128.40582 89.1916l-3.3034592 -9.076195l-3.3034668 9.076195z" fill-rule="evenodd"></path><path fill="#000000" fill-opacity="0.0" d="m99.37008 586.9134l761.2599 0" fill-rule="nonzero"></path><path stroke="#000000" stroke-width="2.0" stroke-linejoin="round" stroke-linecap="butt" d="m99.37008 586.9134l749.2599 0" fill-rule="evenodd"></path><path fill="#000000" stroke="#000000" stroke-width="2.0" stroke-linecap="butt" d="m848.62994 590.21686l9.076172 -3.3034668l-9.076172 -3.3034668z" fill-rule="evenodd"></path><path fill="#00ff00" d="m392.6063 167.69554l0 0c0 -9.558441 7.748657 -17.307083 17.307098 -17.307083l0 0c4.5901184 0 8.992249 1.82341 12.237946 5.0691223c3.2457275 3.2457123 5.0691223 7.647827 5.0691223 12.237961l0 0c0 9.558441 -7.7486267 17.307083 -17.307068 17.307083l0 0c-9.558441 0 -17.307098 -7.748642 -17.307098 -17.307083z" fill-rule="nonzero"></path><path fill="#00ff00" d="m521.7297 154.41733l0 0c0 -9.558441 7.748657 -17.307098 17.307068 -17.307098l0 0c4.590149 0 8.992249 1.8234253 12.237976 5.0691376c3.2456665 3.2457123 5.069092 7.647827 5.069092 12.237961l0 0c0 9.558441 -7.748596 17.307083 -17.307068 17.307083l0 0c-9.558411 0 -17.307068 -7.748642 -17.307068 -17.307083z" fill-rule="nonzero"></path><path fill="#00ff00" d="m539.063 271.56168l0 0c0 -9.558441 7.748657 -17.307083 17.307068 -17.307083l0 0c4.590149 0 8.992249 1.82341 12.237976 5.0691376c3.2457275 3.245697 5.069153 7.647827 5.069153 12.237946l0 0c0 9.558441 -7.748657 17.307098 -17.307129 17.307098l0 0c-9.558411 0 -17.307068 -7.748657 -17.307068 -17.307098z" fill-rule="nonzero"></path><path fill="#00ff00" d="m436.5853 271.56168l0 0c0 -9.558441 7.748657 -17.307083 17.307098 -17.307083l0 0c4.5901184 0 8.992249 1.82341 12.237946 5.0691376c3.2457275 3.245697 5.0691223 7.647827 5.0691223 12.237946l0 0c0 9.558441 -7.7486267 17.307098 -17.307068 17.307098l0 0c-9.558441 0 -17.307098 -7.748657 -17.307098 -17.307098z" fill-rule="nonzero"></path><path fill="#ff0000" d="m153.16798 363.0735l0 0c0 -9.558441 7.748642 -17.307068 17.307083 -17.307068l0 0c4.5901184 0 8.992249 1.8233948 12.237961 5.0691223c3.245697 3.245697 5.0691223 7.647827 5.0691223 12.237946l0 0c0 9.558441 -7.748642 17.307098 -17.307083 17.307098l0 0c-9.558441 0 -17.307083 -7.748657 -17.307083 -17.307098z" fill-rule="nonzero"></path><path fill="#ff0000" d="m217.13911 287.15485l0 0c0 -9.558441 7.748642 -17.307068 17.307083 -17.307068l0 0c4.5901184 0 8.992249 1.8234253 12.237961 5.0691223c3.245697 3.245697 5.0691223 7.647827 5.0691223 12.237946l0 0c0 9.558441 -7.748642 17.307098 -17.307083 17.307098l0 0c-9.558441 0 -17.307083 -7.748657 -17.307083 -17.307098z" fill-rule="nonzero"></path><path fill="#ff0000" d="m323.41602 389.76117l0 0c0 -9.558441 7.7486267 -17.307098 17.307068 -17.307098l0 0c4.590149 0 8.992249 1.8234253 12.237976 5.0691223c3.245697 3.245697 5.0691223 7.647827 5.0691223 12.237976l0 0c0 9.558411 -7.748657 17.307068 -17.307098 17.307068l0 0c-9.558441 0 -17.307068 -7.748657 -17.307068 -17.307068z" fill-rule="nonzero"></path><path fill="#ff0000" d="m262.41733 432.30185l0 0c0 -9.558441 7.7486267 -17.307098 17.307068 -17.307098l0 0c4.590149 0 8.992249 1.8234253 12.237976 5.0691223c3.245697 3.2457275 5.0691223 7.647827 5.0691223 12.237976l0 0c0 9.558441 -7.748657 17.307068 -17.307098 17.307068l0 0c-9.558441 0 -17.307068 -7.7486267 -17.307068 -17.307068z" fill-rule="nonzero"></path><path fill="#ff0000" d="m198.52493 524.95404l0 0c0 -9.558411 7.748642 -17.307068 17.307083 -17.307068l0 0c4.5901337 0 8.992249 1.8234253 12.237961 5.069153c3.2457123 3.2456665 5.0691376 7.647827 5.0691376 12.237915l0 0c0 9.558472 -7.748657 17.307129 -17.307098 17.307129l0 0c-9.558441 0 -17.307083 -7.748657 -17.307083 -17.307129z" fill-rule="nonzero"></path><path fill="#ff0000" d="m358.0315 522.9659l0 0c0 -9.558472 7.748657 -17.307098 17.307098 -17.307098l0 0c4.5901184 0 8.992249 1.8234253 12.237946 5.069153c3.245697 3.245697 5.0691223 7.6477966 5.0691223 12.237946l0 0c0 9.558411 -7.7486267 17.307068 -17.307068 17.307068l0 0c-9.558441 0 -17.307098 -7.748657 -17.307098 -17.307068z" fill-rule="nonzero"></path><path fill="#00ff00" d="m556.3438 397.68765l0 0c0 -9.558441 7.748657 -17.307068 17.307129 -17.307068l0 0c4.590088 0 8.992249 1.8234253 12.237915 5.0691223c3.2457275 3.245697 5.069153 7.647827 5.069153 12.237946l0 0c0 9.558441 -7.748657 17.307098 -17.307068 17.307098l0 0c-9.558472 0 -17.307129 -7.748657 -17.307129 -17.307098z" fill-rule="nonzero"></path><path fill="#00ff00" d="m679.0971 298.11023l0 0c0 -9.558441 7.748657 -17.307068 17.307068 -17.307068l0 0c4.590149 0 8.992249 1.8233948 12.237976 5.0691223c3.2457275 3.245697 5.069153 7.647827 5.069153 12.237946l0 0c0 9.558441 -7.748657 17.307098 -17.307129 17.307098l0 0c-9.558411 0 -17.307068 -7.748657 -17.307068 -17.307098z" fill-rule="nonzero"></path><path fill="#000000" fill-opacity="0.0" d="m45.09186 309.91602l0 -232.72441l70.83464 0l0 232.72441z" fill-rule="nonzero"></path><path fill="#000000" d="m87.371864 298.32227l-25.046879 0l0 -5.0l17.734379 -5.921875q2.46875 -0.828125 3.703125 -1.203125q-1.359375 -0.421875 -4.015625 -1.328125l-17.421879 -6.0l0 -4.453125l25.046879 0l0 3.1875l-20.96875 0l20.96875 7.28125l0 2.984375l-21.328125 7.25l21.328125 0l0 3.203125zm-9.078125 -27.431427q-5.03125 0 -7.46875 -2.8125q-2.015625 -2.34375 -2.015625 -5.703125q0 -3.75 2.453125 -6.125q2.453125 -2.375 6.78125 -2.375q3.5 0 5.515625 1.0625q2.0 1.046875 3.109375 3.0625q1.109375 2.0 1.109375 4.375q0 3.8125 -2.4375 6.171875q-2.453125 2.34375 -7.046875 2.34375zm0 -3.171875q3.484375 0 5.21875 -1.515625q1.734375 -1.515625 1.734375 -3.828125q0 -2.296875 -1.734375 -3.8125q-1.75 -1.515625 -5.3125 -1.515625q-3.375 0 -5.109375 1.53125q-1.734375 1.515625 -1.734375 3.796875q0 2.3125 1.734375 3.828125q1.71875 1.515625 5.203125 1.515625zm9.078125 -17.25853l-18.15625 0l0 -2.765625l2.59375 0q-3.0 -2.0 -3.0 -5.78125q0 -1.640625 0.59375 -3.015625q0.59375 -1.375 1.546875 -2.046875q0.953125 -0.6875 2.265625 -0.96875q0.859375 -0.171875 3.0 -0.171875l11.15625 0l0 3.078125l-11.046875 0q-1.875 0 -2.796875 0.359375q-0.9375 0.359375 -1.484375 1.28125q-0.5625 0.90625 -0.5625 2.140625q0 1.96875 1.25 3.390625q1.234375 1.421875 4.734375 1.421875l9.90625 0l0 3.078125zm-5.84375 -31.69603l0.390625 -3.171875q2.78125 0.75 4.328125 2.78125q1.53125 2.03125 1.53125 5.203125q0 3.96875 -2.453125 6.3125q-2.453125 2.328125 -6.875 2.328125q-4.578125 0 -7.109375 -2.359375q-2.53125 -2.359375 -2.53125 -6.125q0 -3.640625 2.484375 -5.9375q2.46875 -2.3125 6.96875 -2.3125q0.28125 0 0.828125 0.015625l0 13.546875q2.984375 -0.171875 4.578125 -1.6875q1.578125 -1.53125 1.578125 -3.8125q0 -1.6875 -0.875 -2.875q-0.890625 -1.203125 -2.84375 -1.90625zm-4.96875 10.109375l0 -10.140625q-2.296875 0.203125 -3.4375 1.15625q-1.78125 1.46875 -1.78125 3.8125q0 2.125 1.421875 3.578125q1.421875 1.4375 3.796875 1.59375zm17.796875 -16.82103l-2.875 0.34375q0.265625 -1.015625 0.265625 -1.765625q0 -1.015625 -0.34375 -1.625q-0.34375 -0.625 -0.953125 -1.015625q-0.46875 -0.296875 -2.296875 -0.9375q-0.25 -0.09375 -0.75 -0.28125l-18.1875 6.890625l0 -3.3125l10.515625 -3.78125q2.0 -0.734375 4.203125 -1.3125q-2.109375 -0.53125 -4.140625 -1.265625l-10.578125 -3.875l0 -3.078125l18.46875 6.90625q2.984375 1.109375 4.109375 1.71875q1.53125 0.828125 2.234375 1.890625q0.703125 1.046875 0.703125 2.515625q0 0.890625 -0.375 1.984375zm-15.03125 -26.362991l-0.28125 -3.125q1.890625 -0.21875 3.09375 -1.03125q1.203125 -0.8125 1.953125 -2.515625q0.734375 -1.71875 0.734375 -3.84375q0 -1.90625 -0.5625 -3.359375q-0.5625 -1.453125 -1.546875 -2.15625q-0.984375 -0.71875 -2.140625 -0.71875q-1.1875 0 -2.0625 0.6875q-0.875 0.6875 -1.484375 2.265625q-0.390625 1.0 -1.21875 4.453125q-0.828125 3.453125 -1.5625 4.84375q-0.9375 1.78125 -2.328125 2.671875q-1.390625 0.875 -3.125 0.875q-1.890625 0 -3.53125 -1.078125q-1.6562538 -1.078125 -2.5156288 -3.140625q-0.859375 -2.0625 -0.859375 -4.59375q0 -2.796875 0.90625 -4.921875q0.890625 -2.125 2.6406288 -3.265625q1.734375 -1.140625 3.9375 -1.234375l0.25 3.1875q-2.375 0.25 -3.59375 1.734375q-1.21875 1.46875 -1.21875 4.359375q0 3.0 1.109375 4.390625q1.09375 1.375 2.65625 1.375q1.34375 0 2.21875 -0.984375q0.875 -0.953125 1.796875 -4.984375q0.90625 -4.046875 1.59375 -5.5625q1.0 -2.1875 2.546875 -3.21875q1.546875 -1.046875 3.5625 -1.046875q2.0 0 3.78125 1.15625q1.765625 1.140625 2.75 3.28125q0.96875 2.140625 0.96875 4.828125q0 3.390625 -0.984375 5.703125q-1.0 2.296875 -2.984375 3.609375q-1.984375 1.296875 -4.5 1.359375zm15.0 -23.849823l-25.109375 0l0 -2.796875l2.359375 0q-1.375 -0.984375 -2.0625 -2.234375q-0.703125 -1.25 -0.703125 -3.03125q0 -2.328125 1.203125 -4.09375q1.1875 -1.78125 3.375 -2.6875q2.171875 -0.90625 4.765625 -0.90625q2.796875 0 5.03125 1.0q2.21875 1.0 3.40625 2.90625q1.1875 1.90625 1.1875 4.0q0 1.546875 -0.640625 2.765625q-0.65625 1.21875 -1.640625 2.0l8.828125 0l0 3.078125zm-15.921875 -2.78125q3.5 0 5.171875 -1.421875q1.671875 -1.421875 1.671875 -3.4375q0 -2.046875 -1.734375 -3.5q-1.734375 -1.46875 -5.375 -1.46875q-3.46875 0 -5.1875 1.4375q-1.734375 1.421875 -1.734375 3.40625q0 1.953125 1.84375 3.46875q1.84375 1.515625 5.34375 1.515625zm3.125 -28.91478l0.390625 -3.1718826q2.78125 0.75 4.328125 2.7812576q1.53125 2.03125 1.53125 5.203125q0 3.96875 -2.453125 6.3125q-2.453125 2.328125 -6.875 2.328125q-4.578125 0 -7.109375 -2.359375q-2.53125 -2.359375 -2.53125 -6.125q0 -3.640625 2.484375 -5.9375q2.46875 -2.3125076 6.96875 -2.3125076q0.28125 0 0.828125 0.015625l0 13.546883q2.984375 -0.171875 4.578125 -1.6875q1.578125 -1.53125 1.578125 -3.8125q0 -1.6875 -0.875 -2.875q-0.890625 -1.203125 -2.84375 -1.90625zm-4.96875 10.109375l0 -10.140625q-2.296875 0.203125 -3.4375 1.15625q-1.78125 1.46875 -1.78125 3.8125q0 2.125 1.421875 3.578125q1.421875 1.4375 3.796875 1.59375zm10.8125 -16.961662l-18.15625 0l0 -2.765625l2.59375 0q-3.0 -2.0 -3.0 -5.78125q0 -1.640625 0.59375 -3.015625q0.59375 -1.375 1.546875 -2.046875q0.953125 -0.6875 2.265625 -0.96875q0.859375 -0.171875 3.0 -0.171875l11.15625 0l0 3.078125l-11.046875 0q-1.875 0 -2.796875 0.359375q-0.9375 0.359375 -1.484375 1.28125q-0.5625 0.90625 -0.5625 2.140625q0 1.96875 1.25 3.390625q1.234375 1.421875 4.734375 1.421875l9.90625 0l0 3.078125zm-2.75 -25.992905l2.71875 -0.4375q0.265625 1.296875 0.265625 2.328125q0 1.671875 -0.53125 2.59375q-0.53125 0.921875 -1.390625 1.296875q-0.859375 0.375 -3.625 0.375l-10.4375 0l0 2.265625l-2.40625 0l0 -2.265625l-4.484375 0l-1.8437538 -3.0625l6.328129 0l0 -3.09375l2.40625 0l0 3.09375l10.609375 0q1.3125 0 1.6875 -0.15625q0.375 -0.15625 0.609375 -0.515625q0.21875 -0.375 0.21875 -1.0625q0 -0.515625 -0.125 -1.359375z" fill-rule="nonzero"></path><path fill="#000000" fill-opacity="0.0" d="m590.958 596.6063l263.24408 0l0 55.02362l-263.24408 0z" fill-rule="nonzero"></path><path fill="#000000" d="m602.55176 638.8863l0 -25.046875l5.0 0l5.921875 17.734375q0.828125 2.46875 1.203125 3.703125q0.421875 -1.359375 1.328125 -4.015625l6.0 -17.421875l4.453125 0l0 25.046875l-3.1875 0l0 -20.96875l-7.28125 20.96875l-2.984375 0l-7.25 -21.328125l0 21.328125l-3.203125 0zm28.603271 -21.515625l0 -3.53125l3.078125 0l0 3.53125l-3.078125 0zm0 21.515625l0 -18.15625l3.078125 0l0 18.15625l-3.078125 0zm7.683899 0l0 -18.15625l2.765625 0l0 2.59375q2.0 -3.0 5.78125 -3.0q1.640625 0 3.015625 0.59375q1.375 0.59375 2.046875 1.546875q0.6875 0.953125 0.96875 2.265625q0.171875 0.859375 0.171875 3.0l0 11.15625l-3.078125 0l0 -11.046875q0 -1.875 -0.359375 -2.796875q-0.359375 -0.9375 -1.28125 -1.484375q-0.90625 -0.5625 -2.140625 -0.5625q-1.96875 0 -3.390625 1.25q-1.421875 1.234375 -1.421875 4.734375l0 9.90625l-3.078125 0zm31.164795 0l0 -2.671875q-2.125 3.078125 -5.765625 3.078125q-1.59375 0 -3.0 -0.609375q-1.390625 -0.625 -2.0625 -1.546875q-0.671875 -0.9375 -0.953125 -2.28125q-0.1875 -0.90625 -0.1875 -2.875l0 -11.25l3.078125 0l0 10.078125q0 2.40625 0.1875 3.234375q0.296875 1.21875 1.234375 1.921875q0.9375 0.6875 2.328125 0.6875q1.375 0 2.59375 -0.703125q1.21875 -0.71875 1.71875 -1.9375q0.5 -1.21875 0.5 -3.546875l0 -9.734375l3.078125 0l0 18.15625l-2.75 0zm14.102295 -2.75l0.4375 2.71875q-1.296875 0.265625 -2.328125 0.265625q-1.671875 0 -2.59375 -0.53125q-0.921875 -0.53125 -1.296875 -1.390625q-0.375 -0.859375 -0.375 -3.625l0 -10.4375l-2.265625 0l0 -2.40625l2.265625 0l0 -4.484375l3.0625 -1.84375l0 6.328125l3.09375 0l0 2.40625l-3.09375 0l0 10.609375q0 1.3125 0.15625 1.6875q0.15625 0.375 0.515625 0.609375q0.375 0.21875 1.0625 0.21875q0.515625 0 1.359375 -0.125zm15.331726 -3.09375l3.171875 0.390625q-0.75 2.78125 -2.78125 4.328125q-2.03125 1.53125 -5.203125 1.53125q-3.96875 0 -6.3125 -2.453125q-2.328125 -2.453125 -2.328125 -6.875q0 -4.578125 2.359375 -7.109375q2.359375 -2.53125 6.125 -2.53125q3.640625 0 5.9375 2.484375q2.3125 2.46875 2.3125 6.96875q0 0.28125 -0.015625 0.828125l-13.546875 0q0.171875 2.984375 1.6875 4.578125q1.53125 1.578125 3.8125 1.578125q1.6875 0 2.875 -0.875q1.203125 -0.890625 1.90625 -2.84375zm-10.109375 -4.96875l10.140625 0q-0.203125 -2.296875 -1.15625 -3.4375q-1.46875 -1.78125 -3.8125 -1.78125q-2.125 0 -3.578125 1.421875q-1.4375 1.421875 -1.59375 3.796875zm15.727295 5.390625l3.046875 -0.46875q0.25 1.828125 1.421875 2.796875q1.171875 0.96875 3.265625 0.96875q2.125 0 3.140625 -0.859375q1.03125 -0.859375 1.03125 -2.015625q0 -1.046875 -0.90625 -1.640625q-0.625 -0.421875 -3.140625 -1.046875q-3.390625 -0.859375 -4.703125 -1.484375q-1.296875 -0.625 -1.96875 -1.71875q-0.671875 -1.109375 -0.671875 -2.4375q0 -1.21875 0.546875 -2.25q0.5625 -1.03125 1.515625 -1.71875q0.71875 -0.53125 1.953125 -0.890625q1.25 -0.375 2.65625 -0.375q2.140625 0 3.75 0.625q1.625 0.609375 2.390625 1.65625q0.765625 1.046875 1.0625 2.8125l-3.015625 0.40625q-0.203125 -1.390625 -1.1875 -2.171875q-0.984375 -0.796875 -2.765625 -0.796875q-2.125 0 -3.03125 0.703125q-0.90625 0.703125 -0.90625 1.640625q0 0.59375 0.375 1.078125q0.375 0.5 1.1875 0.8125q0.453125 0.171875 2.703125 0.796875q3.265625 0.859375 4.5625 1.421875q1.296875 0.546875 2.03125 1.609375q0.734375 1.0625 0.734375 2.640625q0 1.53125 -0.90625 2.890625q-0.890625 1.359375 -2.59375 2.109375q-1.6875 0.734375 -3.828125 0.734375q-3.53125 0 -5.390625 -1.46875q-1.84375 -1.46875 -2.359375 -4.359375zm28.581726 5.421875l0 -25.046875l9.453125 0q2.484375 0 3.8125 0.234375q1.84375 0.3125 3.078125 1.171875q1.25 0.859375 2.015625 2.421875q0.765625 1.546875 0.765625 3.40625q0 3.203125 -2.046875 5.421875q-2.03125 2.203125 -7.34375 2.203125l-6.421875 0l0 10.1875l-3.3125 0zm3.3125 -13.140625l6.484375 0q3.203125 0 4.546875 -1.1875q1.359375 -1.203125 1.359375 -3.375q0 -1.578125 -0.796875 -2.6875q-0.796875 -1.125 -2.09375 -1.484375q-0.828125 -0.21875 -3.09375 -0.21875l-6.40625 0l0 8.953125zm19.334167 13.140625l0 -25.046875l3.078125 0l0 25.046875l-3.078125 0zm19.621399 -2.234375q-1.71875 1.453125 -3.296875 2.046875q-1.578125 0.59375 -3.390625 0.59375q-2.984375 0 -4.59375 -1.453125q-1.609375 -1.46875 -1.609375 -3.734375q0 -1.34375 0.609375 -2.4375q0.609375 -1.109375 1.578125 -1.765625q0.984375 -0.671875 2.21875 -1.015625q0.90625 -0.234375 2.734375 -0.453125q3.734375 -0.453125 5.484375 -1.0625q0.015625 -0.640625 0.015625 -0.8125q0 -1.875 -0.859375 -2.640625q-1.1875 -1.046875 -3.515625 -1.046875q-2.171875 0 -3.203125 0.765625q-1.03125 0.75 -1.53125 2.6875l-3.0 -0.40625q0.40625 -1.9375 1.34375 -3.125q0.9375 -1.1875 2.71875 -1.828125q1.78125 -0.640625 4.125 -0.640625q2.328125 0 3.765625 0.546875q1.453125 0.546875 2.140625 1.375q0.6875 0.828125 0.953125 2.09375q0.15625 0.796875 0.15625 2.84375l0 4.09375q0 4.296875 0.1875 5.4375q0.203125 1.125 0.796875 2.171875l-3.21875 0q-0.484375 -0.953125 -0.609375 -2.234375zm-0.265625 -6.875q-1.671875 0.6875 -5.015625 1.15625q-1.90625 0.28125 -2.6875 0.625q-0.78125 0.34375 -1.21875 1.0q-0.421875 0.65625 -0.421875 1.453125q0 1.234375 0.921875 2.0625q0.9375 0.8125 2.734375 0.8125q1.78125 0 3.15625 -0.78125q1.390625 -0.78125 2.046875 -2.125q0.484375 -1.046875 0.484375 -3.078125l0 -1.125zm7.55542 16.09375l-0.34375 -2.875q1.015625 0.265625 1.765625 0.265625q1.015625 0 1.625 -0.34375q0.625 -0.34375 1.015625 -0.953125q0.296875 -0.46875 0.9375 -2.296875q0.09375 -0.25 0.28125 -0.75l-6.890625 -18.1875l3.3125 0l3.78125 10.515625q0.734375 2.0 1.3125 4.203125q0.53125 -2.109375 1.265625 -4.140625l3.875 -10.578125l3.078125 0l-6.90625 18.46875q-1.109375 2.984375 -1.71875 4.109375q-0.828125 1.53125 -1.890625 2.234375q-1.046875 0.703125 -2.515625 0.703125q-0.890625 0 -1.984375 -0.375zm29.890625 -12.828125l3.171875 0.390625q-0.75 2.78125 -2.78125 4.328125q-2.03125 1.53125 -5.203125 1.53125q-3.96875 0 -6.3125 -2.453125q-2.328125 -2.453125 -2.328125 -6.875q0 -4.578125 2.359375 -7.109375q2.359375 -2.53125 6.125 -2.53125q3.640625 0 5.9375 2.484375q2.3125 2.46875 2.3125 6.96875q0 0.28125 -0.015625 0.828125l-13.546875 0q0.171875 2.984375 1.6875 4.578125q1.53125 1.578125 3.8125 1.578125q1.6875 0 2.875 -0.875q1.203125 -0.890625 1.90625 -2.84375zm-10.109375 -4.96875l10.140625 0q-0.203125 -2.296875 -1.15625 -3.4375q-1.46875 -1.78125 -3.8125 -1.78125q-2.125 0 -3.578125 1.421875q-1.4375 1.421875 -1.59375 3.796875zm28.727295 10.8125l0 -2.296875q-1.71875 2.703125 -5.078125 2.703125q-2.15625 0 -3.984375 -1.1875q-1.8125 -1.203125 -2.8125 -3.34375q-1.0 -2.140625 -1.0 -4.9375q0 -2.71875 0.90625 -4.921875q0.90625 -2.21875 2.703125 -3.390625q1.8125 -1.1875 4.0625 -1.1875q1.640625 0 2.921875 0.703125q1.28125 0.6875 2.078125 1.796875l0 -8.984375l3.0625 0l0 25.046875l-2.859375 0zm-9.71875 -9.0625q0 3.484375 1.46875 5.21875q1.46875 1.71875 3.46875 1.71875q2.015625 0 3.421875 -1.640625q1.421875 -1.65625 1.421875 -5.03125q0 -3.734375 -1.4375 -5.46875q-1.4375 -1.75 -3.546875 -1.75q-2.046875 0 -3.421875 1.6875q-1.375 1.671875 -1.375 5.265625z" fill-rule="nonzero"></path><path fill="#4a86e8" d="m461.1287 369.83545l9.151062 -9.151062l9.720978 9.720978l9.720978 -9.720978l9.151062 9.151062l-9.720978 9.720978l9.720978 9.720978l-9.151062 9.151062l-9.720978 -9.720978l-9.720978 9.720978l-9.151062 -9.151062l9.720978 -9.720978z" fill-rule="nonzero"></path><path fill="#000000" fill-opacity="0.0" d="m193.45407 96.0l408.6929 464.0" fill-rule="nonzero"></path><path stroke="#000000" stroke-width="4.0" stroke-linejoin="round" stroke-linecap="butt" stroke-dasharray="16.0,12.0" d="m193.45407 96.0l408.6929 464.0" fill-rule="nonzero"></path></g></svg>

